<svg xmlns="http://www.w3.org/2000/svg" height="24px" viewBox="0 -960 960 960" width="24px"
    fill="#717171">
    <path
        d="M120-160q-33 0-56.5-23.5T40-240v-480q0-33 23.5-56.5T120-800h720q33 0 56.5 23.5T920-720v480q0 33-23.5 56.5T840-160H120Zm0-80h720v-480H120v480Zm200-40h320v-80H320v80ZM200-420h80v-80h-80v80Zm160 0h80v-80h-80v80Zm160 0h80v-80h-80v80Zm160 0h80v-80h-80v80ZM200-560h80v-80h-80v80Zm160 0h80v-80h-80v80Zm160 0h80v-80h-80v80Zm160 0h80v-80h-80v80ZM120-240v-480 480Z" />
    <!-- red badge: pixel coords scaled by 40, Y += -960 -->
    <circle cx="700" cy="-260" r="180" fill="#e74c3c"/>
    <line x1="612" y1="-348" x2="788" y2="-172" stroke="white" stroke-width="60"
        stroke-linecap="round"/>
    <line x1="788" y1="-348" x2="612" y2="-172" stroke="white" stroke-width="60"
        stroke-linecap="round"/>
</svg>
